<?xml version="1.0" encoding="UTF-8" standalone="no"?>
<svg
   viewBox="0 0 16 16"
   version="1.1"
   id="svg1"
   sodipodi:docname="plasma-rgb.svg"
   inkscape:version="1.4 (e7c3feb100, 2024-10-09)"
   xmlns:inkscape="http://www.inkscape.org/namespaces/inkscape"
   xmlns:sodipodi="http://sodipodi.sourceforge.net/DTD/sodipodi-0.dtd"
   xmlns:xlink="http://www.w3.org/1999/xlink"
   xmlns="http://www.w3.org/2000/svg"
   xmlns:svg="http://www.w3.org/2000/svg">
  <sodipodi:namedview
     id="namedview1"
     pagecolor="#505050"
     bordercolor="#ffffff"
     borderopacity="1"
     inkscape:showpageshadow="0"
     inkscape:pageopacity="0"
     inkscape:pagecheckerboard="1"
     inkscape:deskcolor="#505050"
     inkscape:zoom="27.5625"
     inkscape:cx="8"
     inkscape:cy="8.0181406"
     inkscape:window-width="1280"
     inkscape:window-height="670"
     inkscape:window-x="0"
     inkscape:window-y="0"
     inkscape:window-maximized="1"
     inkscape:current-layer="svg1" />
  <defs
     id="defs3051">
    <linearGradient
       id="linearGradient1"
       inkscape:collect="always">
      <stop
         style="stop-color:#ff0000;stop-opacity:1;"
         offset="0"
         id="stop1" />
      <stop
         style="stop-color:#ffff00;stop-opacity:1;"
         offset="0.19677734"
         id="stop3" />
      <stop
         style="stop-color:#00ff00;stop-opacity:1;"
         offset="0.40113848"
         id="stop4" />
      <stop
         style="stop-color:#00ffff;stop-opacity:1;"
         offset="0.6011793"
         id="stop5" />
      <stop
         style="stop-color:#0000ff;stop-opacity:1;"
         offset="0.8023141"
         id="stop6" />
      <stop
         style="stop-color:#ff00ff;stop-opacity:1;"
         offset="1"
         id="stop2" />
    </linearGradient>
    <style
       type="text/css"
       id="current-color-scheme">.ColorScheme-Text { color: #fcfcfc; } </style>
    <linearGradient
       inkscape:collect="always"
       xlink:href="#linearGradient1"
       id="linearGradient2"
       x1="8"
       y1="2"
       x2="8"
       y2="14"
       gradientUnits="userSpaceOnUse" />
  </defs>
  <path
     style="fill:url(#linearGradient2);fill-opacity:1"
     d="M 5 2 A 1 1 0 0 0 4 3 A 1 1 0 0 0 5 4 A 1 1 0 0 0 6 3 A 1 1 0 0 0 5 2 z M 10 2 L 8.5 3.5 L 11 6 L 8.5 8.5 L 10 10 L 14 6 L 10 2 z M 3.25 6.5 A 1.25 1.25 0 0 0 2 7.75 A 1.25 1.25 0 0 0 3.25 9 A 1.25 1.25 0 0 0 4.5 7.75 A 1.25 1.25 0 0 0 3.25 6.5 z M 6.5 11 A 1.5 1.5 0 0 0 5 12.5 A 1.5 1.5 0 0 0 6.5 14 A 1.5 1.5 0 0 0 8 12.5 A 1.5 1.5 0 0 0 6.5 11 z "
     class="ColorScheme-Text"
     id="path1" />
</svg>
